<?xml version="1.0" encoding="UTF-8" standalone="no"?>
<!DOCTYPE svg PUBLIC "-//W3C//DTD SVG 1.1//EN" "http://www.w3.org/Graphics/SVG/1.1/DTD/svg11.dtd">
<svg width="100%" height="100%" viewBox="0 0 100 100" version="1.1" xmlns="http://www.w3.org/2000/svg" xmlns:xlink="http://www.w3.org/1999/xlink" xml:space="preserve" xmlns:serif="http://www.serif.com/" style="fill-rule:evenodd;clip-rule:evenodd;stroke-linejoin:round;stroke-miterlimit:2;">
    <path d="M35.494,36.261C35.494,33.971 35.877,32.063 36.639,30.155C37.404,28.436 38.549,26.91 39.884,25.765C41.22,24.62 42.748,23.664 44.464,23.094C46.181,22.521 48.091,22.14 49.999,22.14C51.907,22.14 53.626,22.521 55.342,23.094C57.059,23.664 58.587,24.62 59.923,25.765C61.259,26.91 62.403,28.436 63.167,30.346C63.93,32.252 64.313,34.353 64.313,36.643L64.313,37.98C64.313,38.551 64.121,39.123 64.121,39.888C63.93,40.459 63.739,41.224 63.548,41.987C63.359,42.75 62.976,43.321 62.594,43.895C62.213,44.468 61.64,44.849 60.877,45.231C60.114,45.611 59.35,45.803 58.396,45.803C57.633,45.803 57.059,45.803 56.679,45.611C56.296,45.42 55.916,45.231 55.534,44.849C55.342,44.657 54.962,44.277 54.962,43.895C54.771,43.321 54.771,42.941 54.771,42.558C54.006,43.321 53.052,43.895 51.907,44.468C50.762,44.849 49.617,45.04 48.282,45.04C46.374,45.04 44.847,44.468 43.893,43.514C42.939,42.558 42.365,41.224 42.365,39.696C42.365,38.551 42.556,37.787 42.939,37.024C43.319,36.261 43.893,35.689 44.464,35.307C45.036,34.926 45.801,34.542 46.755,34.353C47.518,34.162 48.472,34.162 49.427,34.162C50.381,34.162 51.335,34.162 51.907,34.353C52.672,34.542 53.052,34.733 53.435,34.926C53.435,34.353 53.435,33.779 53.243,33.206C53.052,32.636 52.861,32.252 52.672,31.871C52.289,31.489 51.907,31.3 51.335,31.109C50.762,30.917 50.19,30.726 49.236,30.726C48.091,30.726 47.326,30.917 46.374,31.109C45.61,31.489 44.847,31.871 44.275,32.252L43.319,29.199C45.229,27.864 47.326,27.291 49.999,27.291C51.716,27.291 53.052,27.482 54.006,28.055C54.962,28.627 55.725,29.199 56.107,29.962C56.488,30.726 56.87,31.682 56.87,32.636C57.059,33.588 57.059,34.542 57.059,35.307L57.059,40.077C57.059,40.65 57.059,41.031 57.25,41.604C57.442,41.987 57.633,42.367 57.824,42.558C58.013,42.75 58.396,42.941 58.778,42.941C59.35,42.941 59.923,42.75 60.304,42.178C60.686,41.604 61.068,41.031 61.259,40.459C61.449,39.696 61.64,39.123 61.64,38.36C61.64,37.597 61.831,37.024 61.831,36.452C61.831,34.733 61.64,33.206 61.068,31.682C60.495,30.155 59.732,29.009 58.587,27.864C57.442,26.719 56.296,25.954 54.771,25.385C53.243,24.811 51.716,24.429 49.808,24.429C48.091,24.429 46.374,24.811 44.847,25.385C43.319,25.954 42.174,26.719 41.029,27.864C40.075,28.818 39.121,30.155 38.549,31.682C37.976,33.206 37.785,34.733 37.785,36.452C37.785,38.169 37.976,39.696 38.549,41.031C39.121,42.558 39.884,43.704 40.84,44.849C41.794,45.994 42.939,46.759 44.464,47.328C45.801,47.902 47.518,48.284 49.236,48.284C50.571,48.284 51.527,48.093 52.481,47.902C53.435,47.711 54.197,47.328 55.151,46.948L55.916,49.238C54.771,49.81 53.817,50.192 52.672,50.383C51.527,50.573 50.381,50.766 49.236,50.766C47.326,50.766 45.61,50.383 43.893,49.81C42.174,49.047 40.84,48.093 39.503,46.948C38.167,45.803 37.213,44.277 36.639,42.367C35.877,40.459 35.494,38.36 35.494,36.261ZM38.741,65.842L42.365,68.702C42.556,68.895 42.556,68.895 42.748,69.084L42.939,69.276L43.13,69.467C43.319,69.467 43.319,69.658 43.51,69.658L43.702,69.658C44.464,70.038 45.229,70.421 45.992,70.803C46.181,70.803 46.374,70.992 46.374,70.992C46.564,70.992 46.564,70.992 46.755,71.185L53.052,71.185C53.243,71.185 53.243,71.185 53.435,70.992C53.626,70.992 53.817,70.803 53.817,70.803C54.58,70.612 55.342,70.23 56.107,69.658L56.296,69.658C56.488,69.658 56.488,69.467 56.679,69.467L56.87,69.276L57.059,69.084C57.25,68.895 57.442,68.895 57.442,68.702L80.532,50.001L80.532,11.452L18.701,11.452L18.701,49.619L38.358,65.651C38.549,65.651 38.741,65.651 38.741,65.842Z" style="fill:url(#_Linear1);fill-rule:nonzero;"/>
    <path d="M16.411,47.711L16.411,27.291L3.816,37.406L6.106,39.314L16.411,47.711Z" style="fill:#dadada;fill-rule:nonzero;"/>
    <path d="M49.617,36.833C48.472,36.833 47.518,37.024 46.946,37.406C46.374,37.787 45.992,38.551 45.992,39.505C45.992,40.268 46.181,40.842 46.755,41.413C47.137,41.794 47.9,41.987 48.854,41.987C49.236,41.987 49.808,41.987 50.381,41.794C50.953,41.604 51.527,41.413 51.907,41.224C52.481,41.031 52.861,40.65 53.243,40.268C53.626,39.888 53.817,39.314 53.817,38.934L53.817,37.406C53.243,37.217 52.861,37.217 52.098,37.024C51.144,37.024 50.381,36.833 49.617,36.833Z" style="fill:url(#_Linear2);fill-rule:nonzero;"/>
    <path d="M49.999,0L38.93,8.972L61.068,8.972L49.999,0Z" style="fill:#dadada;fill-rule:nonzero;"/>
    <path d="M83.205,26.91L83.205,48.093L96.182,37.406L83.205,26.91Z" style="fill:#dadada;fill-rule:nonzero;"/>
    <path d="M59.158,70.612C58.969,70.803 58.778,70.992 58.587,70.992L58.396,71.185C58.204,71.185 58.204,71.375 58.013,71.375C57.824,71.375 57.824,71.566 57.633,71.566C57.633,71.566 57.442,71.566 57.442,71.757C56.87,72.139 56.107,72.52 55.342,72.711C55.151,72.711 54.962,72.902 54.771,72.902C54.389,73.093 54.006,73.093 53.626,73.283L53.435,73.283C53.052,73.283 52.672,73.476 52.289,73.476L47.326,73.476C46.946,73.476 46.564,73.283 46.183,73.283C45.61,73.093 44.847,72.902 44.275,72.711C43.51,72.329 42.939,72.139 42.174,71.757C42.174,71.757 41.985,71.757 41.985,71.566C41.794,71.566 41.794,71.375 41.602,71.375C41.411,71.375 41.411,71.185 41.22,71.185L41.029,70.992C40.84,70.803 40.648,70.803 40.457,70.612L37.595,68.322L5.152,100L94.846,100L62.213,68.132L59.158,70.612Z" style="fill:#dadada;fill-rule:nonzero;"/>
    <path d="M16.793,51.146L4.007,40.842L3.244,40.268L3.244,98.664L36.068,66.794L16.793,51.146Z" style="fill:#dadada;fill-rule:nonzero;"/>
    <path d="M64.121,66.605L96.756,98.283L96.756,40.268L64.121,66.605Z" style="fill:#dadada;fill-rule:nonzero;"/>
    <defs>
        <linearGradient id="_Linear1" x1="0" y1="0" x2="1" y2="0" gradientUnits="userSpaceOnUse" gradientTransform="matrix(61.83115,0,0,59.733864,18.701129,41.318548)"><stop offset="0" style="stop-color:#9e2cf2;stop-opacity:1"/><stop offset="0.5" style="stop-color:#ff70a4;stop-opacity:1"/><stop offset="1" style="stop-color:#ffa674;stop-opacity:1"/></linearGradient>
        <linearGradient id="_Linear2" x1="0" y1="0" x2="1" y2="0" gradientUnits="userSpaceOnUse" gradientTransform="matrix(7.824956,0,0,5.15417,45.991922,39.409625)"><stop offset="0" style="stop-color:#9e2cf2;stop-opacity:1"/><stop offset="0.5" style="stop-color:#ff70a4;stop-opacity:1"/><stop offset="1" style="stop-color:#ffa674;stop-opacity:1"/></linearGradient>
    </defs>
</svg>
